<?xml version="1.0" encoding="UTF-8"?>
<svg id="Layer_2" data-name="Layer 2" xmlns="http://www.w3.org/2000/svg" viewBox="0 0 378.3 355.62">
  <defs>
    <style>
      .cls-1 {
        stroke-miterlimit: 10;
      }

      .cls-1, .cls-2, .cls-3 {
        stroke: #fff;
        stroke-width: 2px;
      }

      .cls-1, .cls-3, .cls-4 {
        fill: #231f20;
      }

      .cls-2, .cls-5 {
        fill: #ec1c27;
      }

      .cls-6 {
        fill: #f9cc3e;
      }

      .cls-6, .cls-4, .cls-7, .cls-5 {
        stroke-width: 0px;
      }

      .cls-7 {
        fill: #fff;
      }

      .cls-8 {
        fill: none;
        stroke: #ec1c27;
        stroke-linecap: round;
        stroke-linejoin: round;
        stroke-width: 6px;
      }
    </style>
  </defs>
  <g id="Layer_1-2" data-name="Layer 1">
    <g>
      <path class="cls-7" d="M181.91,349.35c-49.75-26.42-92.14-60.92-119.38-97.15-25.64-34.11-35.13-66.55-25.37-86.78,10.44-21.63,8.36-51.39-6.34-90.98l-7.64-20.58,21.79,2.6c4.66.56,9.55.84,14.51.84,5.78,0,11.82-.39,17.96-1.15,14.08-1.75,28.16-12.08,43.07-23.02,19.26-14.13,41.08-30.14,65.59-30.14,18.9,0,38.15,14.85,55.14,27.96,14.74,11.38,28.67,22.12,42.47,23.5,7.32.73,14.51,1.1,21.36,1.1,9.37,0,18.4-.7,26.84-2.08l23-3.75-8.33,21.77c-15.45,40.42-17.93,72.01-7.37,93.92,9.76,20.23.27,52.67-25.38,86.78-27.21,36.21-69.61,70.71-119.37,97.14l-6.29,3.34-6.29-3.34Z"/>
      <g>
        <path class="cls-8" d="M188.2,352.62c-52.61-26.92-97.12-62.46-125.66-100.42-25.64-34.11-35.13-66.55-25.37-86.78,10.77-22.33,7.91-54.85-8.51-96.65-2.49-6.35-5.11-12.44-7.69-18.08,10.18,3.9,22.89,6.63,38.53,6.63,5.78,0,11.82-.39,17.96-1.15,14.08-1.75,28.16-12.08,43.07-23.02,20.2-14.83,41.08-30.14,65.59-30.14,18.9,0,38.15,14.85,55.14,27.96,14.74,11.37,28.67,22.12,42.47,23.5,7.32.73,14.51,1.1,21.36,1.1,22.15,0,39.28-3.88,52.14-8.87-3.16,6.7-6.43,14.12-9.52,21.96-16.45,41.78-19.3,74.34-8.48,96.77,9.76,20.23.27,52.67-25.37,86.78-28.53,37.95-73.03,73.49-125.66,100.42Z"/>
        <path class="cls-6" d="M188.2,337.51c-48.14-25.57-88.71-58.45-114.95-93.36-21.9-29.13-31.32-57.75-24.01-72.91,12.09-25.06,10.18-58.3-5.85-101.47,5.05.6,10.41.94,16.1.94,6.33,0,12.93-.42,19.61-1.25,17.54-2.18,32.99-13.51,49.35-25.51,18.47-13.55,37.55-27.54,57.66-27.54,14.33,0,31.66,13.37,46.95,25.17,16.31,12.58,31.7,24.46,49.33,26.22,7.76.78,15.39,1.17,22.69,1.17,10.68,0,20.33-.83,29-2.25-16.83,44-19.16,79.16-6.92,104.53,7.31,15.16-2.12,43.78-24.02,72.91-26.23,34.9-66.78,67.77-114.95,93.36Z"/>
        <g>
          <path class="cls-5" d="M188.56,324.85l-.7-.37c-1.78-.94-3.55-1.89-5.3-2.86l1.44-2.63c1.51.83,3.03,1.65,4.56,2.46,1.53-.81,3.05-1.63,4.56-2.46l1.44,2.63c-1.76.96-3.53,1.91-5.3,2.86l-.7.37Z"/>
          <path class="cls-5" d="M177.35,318.72c-3.46-1.96-6.92-3.99-10.28-6.04l1.56-2.56c3.34,2.03,6.77,4.05,10.2,5.99l-1.48,2.61ZM162,309.54c-3.36-2.11-6.72-4.3-9.99-6.5l1.68-2.49c3.24,2.18,6.57,4.36,9.91,6.45l-1.6,2.54ZM147.09,299.67c-3.27-2.28-6.52-4.63-9.66-6.99l1.8-2.4c3.12,2.33,6.34,4.67,9.58,6.93l-1.72,2.46ZM132.7,289.06c-3.15-2.45-6.28-4.97-9.28-7.49l1.93-2.3c2.98,2.5,6.07,4.99,9.2,7.42l-1.84,2.37ZM118.88,277.7c-3.01-2.62-5.99-5.32-8.84-8.01l2.06-2.18c2.82,2.66,5.77,5.33,8.75,7.93l-1.97,2.26ZM105.74,265.55c-2.86-2.82-5.66-5.7-8.32-8.56l2.2-2.04c2.63,2.83,5.39,5.68,8.22,8.47l-2.11,2.14ZM93.42,252.56c-2.67-3.02-5.25-6.1-7.68-9.16l2.35-1.87c2.4,3.02,4.94,6.06,7.57,9.04l-2.25,1.99ZM82.09,238.67c-2.43-3.24-4.73-6.55-6.85-9.82l2.52-1.63c2.08,3.21,4.35,6.46,6.73,9.65l-2.4,1.8ZM72.08,223.76c-2.12-3.56-4.03-7.11-5.69-10.57l2.7-1.3c1.62,3.38,3.49,6.85,5.56,10.33l-2.58,1.53ZM63.93,207.7c-1.64-3.95-2.96-7.79-3.9-11.42l2.9-.75c.91,3.5,2.18,7.21,3.77,11.03l-2.77,1.15ZM58.78,190.33c-.39-2.45-.58-4.81-.58-7.02,0-1.85.14-3.63.41-5.28l2.96.49c-.25,1.49-.37,3.1-.37,4.79,0,2.05.18,4.25.54,6.55l-2.96.46ZM63.15,173.23l-2.72-1.25.15-.32c1.61-3.33,2.96-6.87,4.01-10.53l2.88.83c-1.1,3.82-2.51,7.53-4.2,11.01l-.13.27ZM68.9,156.07l-2.94-.59c.74-3.68,1.23-7.56,1.45-11.56l3,.17c-.23,4.13-.73,8.17-1.5,11.98ZM67.55,138.08c-.02-3.74-.26-7.68-.7-11.69l2.98-.33c.45,4.12.69,8.15.71,12l-3,.02ZM66.08,120.58c-.57-3.71-1.33-7.6-2.24-11.54l2.92-.67c.93,4.02,1.69,7.97,2.28,11.76l-2.96.46ZM62.43,103.32c-.97-3.66-2.09-7.46-3.33-11.31l2.85-.92c1.26,3.9,2.39,7.75,3.38,11.46l-2.9.77Z"/>
          <path class="cls-5" d="M57.21,86.4c-.65-1.85-1.32-3.72-2.03-5.61l-.86-2.3,2.44.29c1.93.23,3.92.42,5.9.55l-.2,2.99c-1.21-.08-2.42-.18-3.63-.3.41,1.14.82,2.27,1.21,3.4l-2.83.99Z"/>
          <path class="cls-5" d="M71.27,82.61c-.9,0-1.79,0-2.67-.03l.06-3c3.85.08,7.91-.02,11.99-.3l.2,2.99c-3.24.22-6.46.33-9.58.33ZM86.95,81.74l-.32-2.98c.77-.08,1.55-.17,2.33-.27,3.01-.37,6.11-1.08,9.22-2.09l.93,2.85c-3.29,1.08-6.58,1.83-9.78,2.22-.79.1-1.58.19-2.37.27ZM297.42,81.01l-.04-3c4.07-.05,8.11-.24,12.01-.56l.25,2.99c-3.96.33-8.08.52-12.22.57ZM291.31,80.99c-3.97-.08-8.08-.28-12.2-.6l.23-2.99c4.06.32,8.11.52,12.03.59l-.06,3ZM273,79.82c-3.97-.51-7.92-1.56-12.05-3.2l1.11-2.79c3.9,1.55,7.6,2.53,11.33,3.01l-.38,2.98ZM104.89,77.02l-1.2-2.75c3.33-1.46,6.78-3.28,10.54-5.56l1.56,2.56c-3.88,2.35-7.44,4.23-10.9,5.75ZM255.3,74.06c-3.32-1.68-6.77-3.74-10.58-6.28l1.67-2.49c3.7,2.48,7.06,4.47,10.26,6.1l-1.36,2.67ZM120.96,67.99l-1.66-2.5c3.54-2.35,6.98-4.82,9.88-6.92l1.76,2.43c-2.93,2.12-6.4,4.61-9.98,6.99ZM239.71,64.27c-3.31-2.39-6.63-4.92-9.74-7.3l1.83-2.38c3.09,2.37,6.38,4.89,9.67,7.25l-1.76,2.43ZM135.84,57.42l-1.77-2.42c3.33-2.43,6.59-4.8,9.88-7.09l1.71,2.46c-3.27,2.27-6.51,4.63-9.83,7.05ZM225.16,53.28c-2.84-2.17-6.22-4.72-9.71-7.18l1.73-2.45c3.53,2.49,6.94,5.06,9.8,7.25l-1.82,2.38ZM150.66,46.99l-1.65-2.51c3.8-2.49,7.24-4.55,10.52-6.3l1.41,2.65c-3.2,1.7-6.56,3.72-10.28,6.16ZM210.48,42.73c-3.81-2.47-7.21-4.39-10.37-5.86l1.26-2.72c3.29,1.53,6.81,3.51,10.74,6.06l-1.63,2.52ZM166.3,38.2l-1.22-2.74c4.11-1.83,7.95-3.14,11.75-3.99l.66,2.93c-3.6.81-7.26,2.05-11.18,3.8ZM194.64,34.72c-2.87-.91-5.56-1.37-7.98-1.37-1.12,0-2.26.05-3.4.15l-.26-2.99c1.22-.11,2.45-.16,3.65-.16,2.74,0,5.73.51,8.89,1.51l-.91,2.86Z"/>
          <path class="cls-5" d="M320.83,83.62l-2.82-1.02c.39-1.08.78-2.16,1.19-3.24-1.14.17-2.29.32-3.44.46l-.36-2.98c1.98-.24,3.96-.52,5.88-.83l2.58-.42-.94,2.44c-.72,1.88-1.42,3.75-2.08,5.59Z"/>
          <path class="cls-5" d="M199.87,318.66l-1.48-2.61c3.47-1.97,6.93-4,10.29-6.05l1.56,2.56c-3.39,2.06-6.88,4.11-10.37,6.1ZM215.35,309.4l-1.6-2.54c3.37-2.12,6.73-4.32,9.99-6.52l1.68,2.49c-3.29,2.22-6.68,4.43-10.07,6.57ZM230.39,299.42l-1.72-2.46c3.28-2.29,6.53-4.65,9.66-7.01l1.8,2.4c-3.16,2.38-6.44,4.76-9.75,7.07ZM244.91,288.68l-1.85-2.37c3.16-2.46,6.28-4.99,9.27-7.51l1.93,2.29c-3.02,2.54-6.17,5.09-9.36,7.58ZM258.84,277.18l-1.98-2.26c3.03-2.65,5.99-5.35,8.82-8.03l2.07,2.18c-2.85,2.71-5.85,5.44-8.91,8.12ZM272.08,264.87l-2.11-2.13c2.85-2.83,5.64-5.72,8.27-8.58l2.21,2.03c-2.67,2.9-5.48,5.82-8.37,8.68ZM284.47,251.69l-2.26-1.97c2.64-3.02,5.2-6.1,7.6-9.17l2.36,1.85c-2.43,3.1-5.03,6.23-7.7,9.29ZM295.83,237.6l-2.42-1.78c2.4-3.25,4.66-6.55,6.72-9.8l2.53,1.61c-2.1,3.31-4.4,6.66-6.84,9.97ZM305.81,222.45l-2.59-1.51c2.06-3.54,3.91-7.08,5.49-10.5l2.72,1.26c-1.62,3.51-3.52,7.12-5.62,10.74ZM313.84,206.13l-2.79-1.11c1.55-3.89,2.75-7.66,3.56-11.2l2.92.68c-.85,3.68-2.1,7.6-3.7,11.63ZM318.61,188.44l-2.98-.36c.2-1.65.3-3.26.3-4.77,0-2.39-.25-4.61-.74-6.6l2.91-.72c.55,2.23.83,4.69.83,7.32,0,1.63-.11,3.36-.32,5.13ZM313.12,171.38c-1.64-3.63-2.98-7.52-3.99-11.57l2.91-.73c.97,3.88,2.25,7.6,3.82,11.07l-2.73,1.23ZM307.88,153.83c-.65-3.85-1.04-7.93-1.16-12.13l3-.09c.12,4.06.5,8,1.12,11.72l-2.96.5ZM309.72,135.7l-3-.08c.11-3.88.43-7.94.95-12.09l2.98.38c-.51,4.05-.82,8.02-.93,11.8ZM311.51,118.03l-2.96-.5c.64-3.82,1.47-7.81,2.45-11.84l2.92.71c-.96,3.97-1.77,7.88-2.4,11.63ZM315.41,100.64l-2.89-.8c1.03-3.74,2.21-7.62,3.52-11.54l2.85.95c-1.29,3.87-2.46,7.7-3.47,11.39Z"/>
        </g>
      </g>
      <g>
        <rect class="cls-1" x="1" y="74.53" width="64.46" height="99.53"/>
        <rect class="cls-2" x="61.66" y="81.63" width="55.92" height="99.52"/>
        <rect class="cls-3" x="111.9" y="75.47" width="58.77" height="99.53"/>
        <rect class="cls-2" x="164.98" y="81.63" width="68.25" height="99.52"/>
        <rect class="cls-3" x="226.59" y="75.47" width="62.56" height="99.53"/>
        <rect class="cls-2" x="274.93" y="81.63" width="57.82" height="99.52"/>
        <rect class="cls-3" x="325.17" y="75.47" width="52.13" height="99.53"/>
        <g>
          <g>
            <path class="cls-7" d="M14.64,163.89v-4.11c4.43-.54,4.43-1.08,4.43-4.22v-59.91c0-3.13,0-3.78-4.43-4.22v-4.11h18.38c8.22,0,13.52,1.94,13.52,8.21,0,3.68-1.95,5.73-4.11,6.49,3.89,2.59,11.47,8.65,11.47,26.38,0,29.63-17.63,35.48-32.66,35.48h-6.6ZM33.99,100.19c4.43,0,6.81-1.18,6.81-4.32s-2.16-3.79-6.81-3.79h-9.52v8.11h9.52ZM24.47,159.13c12.98-1.41,23.68-8.87,23.68-30.72,0-8.54-1.73-14.81-5.08-18.81-4-4.65-7.25-4.65-18.6-4.65v54.18Z"/>
            <path class="cls-7" d="M14.64,165.38v-1.49h1.5-1.5v1.49h-1.5v-6.94l1.32-.16c2.19-.23,2.97-.61,2.96-.66h0s.19-.43.15-2.06h0v-59.91c0-.78,0-1.37-.06-1.72h0c-.05-.36-.1-.39-.1-.39h0s-.73-.44-2.92-.62h0l-1.35-.13v-6.97h19.89c4.23,0,7.8.46,10.55,1.94h0c2.78,1.43,4.52,4.21,4.46,7.78h0c.03,2.98-1.17,5.24-2.84,6.63h0c4.3,3.42,10.26,10.63,10.19,26.24h0c.02,15.09-4.54,24.52-11.24,30.01h0c-6.69,5.48-15.22,6.96-22.92,6.96h-6.6ZM21.23,162.38c14.71-.24,30.95-5.09,31.15-33.97h0c-.07-17.31-7.13-22.61-10.79-25.13h0l-2.51-1.67,2.85-1c1.61-.61,3.06-1.95,3.1-5.07h0c-.05-2.71-.96-4.04-2.89-5.14h0c-1.95-1.08-5.13-1.59-9.12-1.58h-16.89s0,1.28,0,1.28c1.49.2,2.56.48,3.49,1.41h0c1.09,1.33.9,2.63.94,4.14h0v59.91c-.04,1.5.15,2.8-.95,4.11h0c-.93.91-1.99,1.18-3.48,1.41h0v1.3h5.1ZM22.97,103.44h1.5c11.14-.05,15.37.02,19.76,5.19h0c3.69,4.42,5.43,11.05,5.44,19.78h0c.18,22.36-11.53,30.93-25.03,32.21h0l-.16-1.49.16,1.49-1.66.17v-57.35h0ZM25.98,157.39c11.64-1.9,20.51-8.62,20.68-28.98h0c0-8.35-1.71-14.27-4.72-17.84h0c-3.46-3.95-5.68-4.06-15.95-4.12h0v50.94h0ZM22.97,101.69v-11.12h11.02c2.41.01,4.27.15,5.83.92h0c1.62.75,2.56,2.53,2.48,4.37h0c.05,1.94-.88,3.72-2.47,4.62h0c-1.56.92-3.49,1.19-5.84,1.2h0v-3.01c2.08,0,3.56-.31,4.29-.77h0c.71-.48.97-.85,1.02-2.05h0c-.07-1.18-.21-1.3-.84-1.69h0c-.68-.37-2.23-.61-4.47-.59h-8.01v5.1h8.01v3.01h-11.02Z"/>
          </g>
          <g>
            <path class="cls-7" d="M69.25,136.05c0-26.39,4.97-44.33,17.3-44.33s18.92,17.95,18.92,44.33c0,19.9-5.63,34.82-17.52,34.82-12.76,0-18.71-14.92-18.71-34.82ZM87.96,165.68c7.78,0,11.78-12.76,11.78-29.63,0-21.63-4.87-39.14-13.3-39.14-7.89,0-11.46,17.52-11.46,39.14,0,16.87,4.33,29.63,12.98,29.63Z"/>
            <path class="cls-7" d="M72.47,161.59c-3.23-6.56-4.72-15.45-4.73-25.55h0c0-13.29,1.24-24.5,4.12-32.57h0c2.81-8.01,7.67-13.28,14.69-13.27h0c6.95,0,12.17,5.18,15.44,13.21h0c3.31,8.08,4.99,19.31,4.99,32.63h0c-.01,10.09-1.41,18.97-4.44,25.51h0c-2.97,6.51-7.93,10.84-14.58,10.82h-.07c-6.99,0-12.23-4.28-15.41-10.78h0ZM70.75,136.05c0,9.8,1.49,18.32,4.41,24.21h0c2.98,5.9,7.06,9.08,12.79,9.11h0c5.25-.02,9.05-3.16,11.86-9.08h0c2.75-5.9,4.17-14.43,4.16-24.24h0c0-13.06-1.69-24-4.77-31.49h0c-3.14-7.55-7.38-11.35-12.65-11.35h0c-5.31,0-9.1,3.73-11.86,11.28h0c-2.69,7.5-3.95,18.46-3.94,31.55h0ZM76.83,157.76c-2.27-5.59-3.35-13.14-3.36-21.71h0c0-10.9.89-20.77,2.82-28.07h0c1.93-7.16,4.86-12.41,10.14-12.58h0c5.44.13,8.91,5.31,11.25,12.51h0c2.34,7.31,3.55,17.21,3.56,28.14h0c0,8.55-1,16.1-3.07,21.67h0c-2.02,5.5-5.37,9.44-10.22,9.47h0v-3c2.93.02,5.48-2.42,7.4-7.52h0c1.88-5.03,2.89-12.3,2.88-20.61h0c0-10.7-1.21-20.38-3.41-27.23h0c-2.21-6.96-5.38-10.54-8.39-10.42h0c-2.61-.17-5.42,3.34-7.24,10.34h0c-1.82,6.88-2.72,16.57-2.72,27.3h0c-.01,8.3,1.08,15.56,3.13,20.57h0c2.11,5.06,4.86,7.56,8.34,7.56h0v3c-5.18,0-8.9-3.89-11.12-9.42h0Z"/>
          </g>
          <g>
            <path class="cls-7" d="M121.38,130.36c0-26.38,4.98-44.34,17.3-44.34s18.92,17.95,18.92,44.34c0,19.9-5.62,34.82-17.52,34.82-12.76,0-18.71-14.92-18.71-34.82ZM140.09,160c7.79,0,11.79-12.76,11.79-29.64,0-21.63-4.87-39.15-13.3-39.15-7.9,0-11.47,17.52-11.47,39.15,0,16.87,4.33,29.64,12.98,29.64Z"/>
            <path class="cls-7" d="M124.6,155.9c-3.23-6.55-4.72-15.44-4.73-25.54h0c0-13.29,1.24-24.5,4.12-32.57h0c2.81-8.02,7.66-13.28,14.69-13.27h0c6.95,0,12.17,5.17,15.44,13.2h0c3.31,8.08,4.98,19.31,4.99,32.63h0c0,10.09-1.41,18.97-4.44,25.5h0c-2.98,6.51-7.93,10.84-14.59,10.83h-.07c-6.99,0-12.23-4.28-15.41-10.79h0ZM122.88,130.36c0,9.8,1.49,18.32,4.42,24.21h0c2.97,5.9,7.05,9.08,12.79,9.11h0c5.25-.03,9.05-3.16,11.86-9.08h0c2.75-5.9,4.17-14.43,4.16-24.24h0c0-13.07-1.68-23.99-4.77-31.49h0c-3.14-7.54-7.39-11.35-12.65-11.35h0c-5.3.02-9.1,3.73-11.86,11.28h0c-2.69,7.5-3.95,18.47-3.94,31.56h0ZM128.96,152.07c-2.27-5.59-3.35-13.14-3.35-21.71h0c0-10.9.89-20.77,2.82-28.07h0c1.94-7.16,4.86-12.41,10.15-12.58h0c5.43.13,8.91,5.31,11.24,12.51h0c2.34,7.31,3.55,17.21,3.56,28.15h0c-.01,8.56-1.01,16.1-3.08,21.67h0c-2.02,5.5-5.37,9.43-10.22,9.47h0v-3.01c2.93.04,5.49-2.4,7.41-7.51h0c1.88-5.03,2.88-12.31,2.88-20.62h0c0-10.7-1.21-20.37-3.41-27.23h0c-2.22-6.96-5.39-10.55-8.39-10.42h0c-2.61-.17-5.42,3.34-7.24,10.35h0c-1.83,6.87-2.72,16.57-2.72,27.3h0c0,8.3,1.08,15.56,3.13,20.57h0c2.11,5.06,4.87,7.55,8.34,7.55h0v3.01c-5.18,0-8.9-3.89-11.12-9.42h0Z"/>
          </g>
          <g>
            <path class="cls-7" d="M172.86,169.57v-4.11c4.76-.53,4.76-1.07,4.76-4.21v-59.92c0-3.13,0-3.78-4.76-4.21v-4.11h10.6l13.19,11.35,13.19-11.35h10.6v4.11c-4.76.43-4.76,1.08-4.76,4.21v59.92c0,3.14,0,3.68,4.76,4.21v4.11h-14.6v-4.11c4.43-.53,4.43-1.29,4.43-4.21v-62.51l-13.62,12.11-13.63-12.11v62.51c0,2.92,0,3.68,4.44,4.21v4.11h-14.6Z"/>
            <path class="cls-7" d="M204.33,171.08v-6.95l1.32-.16c2.17-.23,2.95-.66,2.94-.73h0s.21-.48.17-2h0v-59.16l-12.13,10.77-12.12-10.78v59.16c-.03,1.51.12,2,.18,2h0c0,.07.77.5,2.95.73h0l1.32.16v6.95h-16.1v-1.51h1.5-1.5v1.51h-1.5v-6.95l1.33-.15c2.35-.23,3.28-.64,3.27-.71h0s.2-.37.16-2.02h0v-59.92c0-.78,0-1.36-.06-1.7h0c-.06-.35-.1-.35-.11-.37h0c.01-.06-.88-.48-3.22-.64h0l-1.36-.13v-6.99h12.65l12.63,10.88,12.63-10.88h12.67v6.99l-1.37.13c-2.34.17-3.23.58-3.23.64h0s-.21.44-.16,2.07h0v59.92c0,.78,0,1.36.05,1.69h0c.06.33.09.32.09.33h0c0,.07.93.48,3.28.71h0l1.33.15v6.96h-17.61ZM207.35,168.07h11.59v-1.29c-1.63-.23-2.73-.49-3.72-1.39h0c-1.19-1.3-1-2.65-1.03-4.14h0v-59.92c.03-1.49-.16-2.85,1.02-4.17h0c.98-.92,2.1-1.19,3.73-1.39h0v-1.27h-8.53l-13.76,11.84-13.75-11.84h-8.53v1.27c1.63.2,2.75.47,3.74,1.39h0c1.17,1.31.98,2.68,1.02,4.17h0v59.92c-.04,1.49.15,2.84-1.03,4.14h0c-.99.9-2.09,1.16-3.73,1.39h0v1.29h11.6v-1.31c-1.54-.25-2.61-.58-3.51-1.52h0c-1.06-1.3-.9-2.6-.94-3.99h0v-65.85l15.13,13.44,15.13-13.44v65.85c-.04,1.4.13,2.7-.93,3.99h0c-.9.94-1.98,1.26-3.5,1.52h0v1.31h0Z"/>
          </g>
          <g>
            <path class="cls-7" d="M236.34,163.89v-4.11c4.87-.54,4.87-1.08,4.87-4.22v-59.91c0-3.13,0-3.78-4.87-4.22v-4.11h13.09c2.59,0,6.81,0,10.7-1.62l3.9,7.35-3.24,1.84c-1.73-1.41-2.59-2.81-6.16-2.81h-8v9.3h10.16c3.57,0,3.89-1.19,4-3.03h3.24v10.81h-3.24c-.33-1.62-.76-3.03-3.79-3.03h-10.38v52.99h11.13c4.98,0,5.74-2.27,7.57-4.54l3.25,2.16-3.89,8.43c-2.05-.54-4.65-.87-7.35-1.08-2.59-.21-5.19-.21-7.13-.21h-13.84Z"/>
            <path class="cls-7" d="M264.3,166.63c-1.9-.51-4.44-.82-7.1-1.04h0c-2.52-.21-5.07-.21-7.02-.21h-13.84v-1.5h1.5-1.5v1.5h-1.51v-6.96l1.34-.15c2.4-.23,3.38-.64,3.37-.72h0s.2-.36.16-2.01h0v-59.91c0-.78,0-1.37-.06-1.7h0c-.05-.34-.1-.34-.11-.36h0c0-.07-.94-.49-3.33-.66h0l-1.38-.12v-6.98h14.6c2.58,0,6.59-.03,10.12-1.52h0l1.26-.52,5.22,9.85-5.41,3.06-.79-.64c-2.04-1.62-2.09-2.39-5.21-2.48h-6.51v6.3h8.67c1.65.02,2.2-.32,2.24-.4h0c.06-.03.21-.32.25-1.21h0l.08-1.42h6.16v13.82h-5.97l-.25-1.2c-.59-1.58.15-1.55-2.31-1.82h-8.87v49.98h9.63c4.43-.15,4.23-1.4,6.41-3.98h0l.86-1.06,5.45,3.64-4.96,10.74-1.21-.32h0ZM250.18,162.39c1.95,0,4.59,0,7.26.21h0c2.26.19,4.45.44,6.38.84h0l2.84-6.16-.98-.66c-1.39,1.88-3.35,4.12-7.93,4h-12.64v-55.99h11.89c2.82-.21,4.41,1.48,4.99,3.03h.53v-7.81h-.42c-.14.6-.42,1.22-.98,1.78h0c-1.04.97-2.43,1.24-4.34,1.25h-11.67v-12.3h9.51c3.32-.07,5.05,1.32,6.34,2.48h0l1.05-.6-2.59-4.89c-3.83,1.27-7.65,1.25-9.99,1.25h-11.59v1.26c1.68.2,2.82.46,3.82,1.38h0c1.2,1.32,1.01,2.69,1.05,4.19h0v59.91c-.04,1.49.15,2.86-1.06,4.15h0c-1.01.9-2.12,1.15-3.81,1.38h0v1.29h12.34Z"/>
          </g>
          <g>
            <path class="cls-7" d="M281.77,169.57v-4.11c4.43-.53,4.43-1.07,4.43-4.21v-59.92c0-3.13,0-3.78-4.43-4.21v-4.11h19.68c9.41,0,12.21,3.78,12.21,8.86,0,3.35-1.18,7.03-6.27,8.44,0,10.6,1.29,34.71,4,44.77,1.95,7.46,3.78,9.84,7.46,10.37v4.11h-8.22c-1.41-3.13-2.81-6.59-4.22-11.89-3.46-12.98-4.43-36.23-4.43-47.04h-10.38v50.61c0,2.92,0,3.68,4.43,4.21v4.11h-14.27ZM301.45,105.88c4.33,0,6.49-.97,6.49-4.11,0-2.82-2.93-4-6.49-4h-9.84v8.11h9.84Z"/>
            <path class="cls-7" d="M309.66,171.07l-.39-.88c-1.43-3.17-2.88-6.75-4.3-12.12h0c-3.38-12.71-4.39-34.5-4.48-45.92h-7.39v49.1c-.03,1.52.12,2,.17,2h0c0,.07.77.5,2.95.73h0l1.31.16v6.94h-15.77v-1.5h1.5-1.5v1.5h-1.5v-6.94l1.31-.16c2.19-.22,2.97-.61,2.96-.67h0s.2-.42.15-2.06h0v-59.91c0-.78,0-1.37-.06-1.72h0c-.05-.36-.11-.38-.11-.38h0s-.73-.44-2.91-.62h0l-1.35-.14v-6.97h21.18c4.89,0,8.31.97,10.6,2.88h0c2.29,1.93,3.14,4.7,3.11,7.49h0c.1,3.4-1.36,7.74-6.26,9.53h0c.08,10.98,1.41,33.91,3.95,43.29h0c2.05,7.47,3.36,8.8,6.22,9.27h0l1.28.19v6.9h-10.69ZM317.36,168.07v-1.38c-3.67-1.07-5.75-4.52-7.4-11.21h0c-2.79-10.42-4.05-34.43-4.06-45.16h0v-1.14l1.11-.31c4.37-1.29,5.06-3.92,5.17-6.98h0c-.21-4.38-1.65-7.11-10.71-7.36h-18.19v1.27c1.5.21,2.56.49,3.5,1.42h0c1.09,1.32.9,2.62.94,4.13h0v59.91c-.04,1.5.15,2.8-.95,4.11h0c-.94.91-1.98,1.18-3.49,1.41h0v1.3h11.28v-1.31c-1.53-.25-2.6-.58-3.5-1.51h0c-1.06-1.3-.9-2.6-.94-4h0v-52.11h13.39v1.5c-.01,10.72.99,34,4.38,46.66h0c1.25,4.72,2.49,7.92,3.74,10.78h5.74ZM290.1,107.38v-11.12h11.35c1.94.01,3.78.3,5.3,1.14h0c1.52.79,2.72,2.41,2.69,4.37h0c.05,1.88-.81,3.66-2.36,4.53h0c-1.52.87-3.36,1.07-5.63,1.09h0v-3c2.05.01,3.45-.27,4.1-.67h0c.6-.41.82-.69.88-1.94h0c-.04-.85-.3-1.23-1.14-1.74h0c-.82-.47-2.24-.77-3.85-.76h-8.34v5.11h8.34v3h-11.35Z"/>
          </g>
          <g>
            <path class="cls-7" d="M350.01,95.98c-3.57-3.13-4.97-4.76-7.03-4.76s-3.13,1.52-3.13,3.14c0,3.79,4.55,9.19,11.25,21.52,5.19,9.4,11.57,21.84,11.57,32.33s-7.25,16.98-15.47,16.98c-2.92,0-6.27-1.19-8.33-2.48l-1.94,1.19h-2.81l-1.51-11.9,3.46-1.3c1.94,4.33,4.32,9.31,11.14,9.31,5.73,0,10.06-4.87,10.06-10.92,0-9.41-5.4-20.44-10.49-29.63-7.46-14.06-12.33-20.34-12.33-25.74,0-4.87,2.91-7.68,7.57-7.68.87,0,1.63.11,2.49.22l1.95-1.41h3.24l3.89,9.84-3.57,1.3Z"/>
            <path class="cls-7" d="M338.9,164.44l-1.55.94h-4.56l-1.82-14.39,5.89-2.21.58,1.29c2.04,4.39,3.88,8.38,9.77,8.41h0c4.82-.01,8.53-4.06,8.55-9.41h0c.04-8.85-5.22-19.78-10.3-28.93h0c-7.38-14.03-12.37-20.1-12.51-26.44h0c0-2.72.84-5.08,2.49-6.72h0c1.64-1.65,3.97-2.47,6.59-2.45h0c.77,0,1.44.07,2.09.15h0l1.86-1.35h4.75l4.84,12.22-5.02,1.82-.84.31-.68-.59c-3.63-3.28-4.97-4.51-6.03-4.39h0c-1.21.06-1.54.65-1.63,1.64h0c-.2,2.66,4.28,8.48,11.06,20.79h0c5.2,9.47,11.72,21.99,11.76,33.06h0c0,5.79-1.94,10.46-5.08,13.64h0c-3.13,3.18-7.41,4.84-11.88,4.84h0c-2.95-.02-6.02-1.02-8.3-2.25h0ZM339.67,161.43c1.78,1.14,5.01,2.27,7.53,2.25h0c7.45-.08,13.89-5.26,13.96-15.48h0c.04-9.89-6.2-22.26-11.39-31.61h0c-6.62-12.34-11.22-17.33-11.42-22.24h0c0-2.26,1.74-4.64,4.63-4.64h0c2.85.12,4.32,1.88,7.35,4.55h0l1.29-.46-2.95-7.46h-1.74l-2.03,1.47-.59-.07c-.89-.11-1.57-.21-2.3-.2h0c-4,.14-5.92,1.95-6.07,6.17h0c-.13,4.47,4.61,10.94,12.14,25.01h0c5.09,9.26,10.64,20.39,10.67,30.36h0c0,6.76-4.91,12.42-11.55,12.42h0c-6.98.02-10.04-4.83-11.93-8.9h0l-1.02.38,1.2,9.41h1.06l2.38-1.45.79.5h0ZM350.01,95.97l.99-1.13-.99,1.13h0Z"/>
          </g>
        </g>
      </g>
      <g>
        <path class="cls-5" d="M313.31,310.66c-.62-.17-62.23-16.93-125.7-16.93s-125.08,16.75-125.69,16.92l-12.75-48.51c2.76-.76,68.29-18.65,138.44-18.65s135.68,17.89,138.44,18.65l-12.75,48.51,6.37-25.45-6.36,25.46Z"/>
        <path class="cls-5" d="M64.52,312.04l29.49,4.48-1.93-9.87c-9.06,1.61-22.41,4.15-27.56,5.39Z"/>
        <path class="cls-5" d="M56.78,302.83l-7.61-26.65c-16.86,4.26-24.1,6.83-25.17,7.18l24.78,17.9-9.81,29.97c.35-.12,21.31-6.89,51.41-13.06l-30.84-4.8-2.77-10.55Z"/>
        <path class="cls-5" d="M310.69,312.04l-29.49,4.48,1.93-9.87c9.06,1.61,22.41,4.15,27.56,5.39Z"/>
        <path class="cls-5" d="M318.43,302.83l7.61-26.65c16.86,4.26,24.1,6.83,25.17,7.18l-24.78,17.9,9.81,29.97c-.35-.12-21.31-6.89-51.41-13.06l30.84-4.8,2.77-10.55Z"/>
      </g>
      <g>
        <path class="cls-7" d="M108.6,291.93l-1.86-6.57-2.9.59.91,6.76-6.02,1.23-2.83-29.48,10.06-2.06,8.81,28.25-6.17,1.27ZM102.17,269.46l-.42.09,1.16,10.52,2.36-.48-3.11-10.12Z"/>
        <path class="cls-7" d="M136.94,275.79c.21.91.38,1.79.5,2.6.9,6.2.31,9.19-6.19,10.14-3.85.56-5.75.21-7.01-1.42-1.25-1.55-2-3.72-3.31-12.73-1.31-9.01-1.14-10.8-.4-12.72.75-1.88,2.47-2.72,6.13-3.25,6.54-.95,7.97,1.28,8.87,7.48.11.73.2,1.62.3,2.59l-5.66.82c-.45-3.08-.69-3.91-.92-4.43-.19-.48-.72-.64-1.72-.5-.96.14-1.31.43-1.4.95-.16.81-.13,1.79.79,8.1.94,6.43,1.19,7.34,1.58,8.14.23.48.64.61,1.79.45.81-.12,1.2-.37,1.29-.86.23-1.13.12-2.18-.23-4.57l5.58-.81Z"/>
        <path class="cls-7" d="M157.01,285.08l-1.1-6.74-2.95.26.13,6.82-6.12.54.57-29.61,10.23-.89,5.51,29.08-6.28.55ZM153.19,262.02l-.43.04-.05,10.59,2.4-.21-1.93-10.42Z"/>
        <path class="cls-7" d="M172.44,284.02l-.75-29.44,8.21-.21c3.73-.09,5.54.48,6.59,2.17,1.06,1.72,1.49,3.43,1.72,12.33.23,8.95-.12,10.71-1.08,12.44-.97,1.78-2.74,2.41-6.47,2.5l-8.21.21ZM180.32,277.32c.97-.02,1.32-.23,1.5-.74.22-.71.31-1.64.15-7.67-.15-6.07-.3-7.08-.55-7.77-.21-.42-.56-.61-1.53-.58l-1.94.05.43,16.76,1.94-.05Z"/>
        <path class="cls-7" d="M198.1,283.72l1.11-29.43,13.02.49-.23,6.22-6.92-.26-.2,5.17,6.8.26-.22,5.95-6.8-.26-.21,5.56,6.88.26-.25,6.53-12.99-.49Z"/>
        <path class="cls-7" d="M238.33,286.77l2.02-17.55-.23-.03-6.47,17.04-2.67-.31-2.46-18.06-.23-.03-2.02,17.55-5.53-.64,3.37-29.26,8.58.99,1.24,13.03.27.03,4.48-12.37,8.54.99-3.33,29.26-5.57-.64Z"/>
        <path class="cls-7" d="M257.64,289.95l2.14-10.52-1.56-19.22.04-.19,6.17,1.26c.17,7.54.17,8.49.16,9.76l.38.08c.48-1.17.85-2.05,4.04-8.9l5.98,1.22-.04.19-8.71,17.04-2.16,10.6-6.44-1.31Z"/>
      </g>
      <g>
        <path class="cls-4" d="M115.5,228.84v-19.54h-.26l-4.95,19.54h-2.97l-4.99-19.54h-.26v19.54h-6.16v-32.58h9.56l3.01,14.16h.3l3.36-14.16h9.51l.04,32.58h-6.2Z"/>
        <path class="cls-4" d="M128.85,228.84v-32.58h14.42v6.89h-7.66v5.73h7.53v6.59h-7.53v6.16h7.62v7.23h-14.38Z"/>
        <path class="cls-4" d="M150.28,228.84v-32.58h9.08c4.13,0,6.11.69,7.23,2.58,1.12,1.94,1.55,3.83,1.55,13.69s-.43,11.84-1.55,13.73c-1.12,1.94-3.1,2.58-7.23,2.58h-9.08ZM159.19,221.65c1.08,0,1.46-.21,1.68-.77.26-.78.39-1.81.39-8.48s-.13-7.83-.39-8.61c-.22-.47-.6-.69-1.68-.69h-2.15v18.55h2.15Z"/>
        <path class="cls-4" d="M174.95,228.84v-32.58h6.93v32.58h-6.93Z"/>
        <path class="cls-4" d="M205.98,216.35c.09,1.03.13,2.02.13,2.93,0,6.93-1.12,10.12-8.39,10.12-4.3,0-6.33-.69-7.45-2.67-1.12-1.89-1.59-4.39-1.59-14.46s.47-12.01,1.59-13.99c1.12-1.94,3.14-2.58,7.23-2.58,7.32,0,8.52,2.67,8.52,9.6,0,.82-.04,1.81-.09,2.88h-6.33c0-3.44-.13-4.39-.3-4.99-.13-.56-.69-.82-1.81-.82s-1.51.26-1.68.82c-.3.86-.43,1.94-.43,9s.13,8.22.43,9.17c.17.56.6.78,1.89.78.9,0,1.38-.22,1.55-.73.43-1.21.47-2.37.47-5.04h6.24Z"/>
        <path class="cls-4" d="M222.64,228.84l-.56-7.53h-3.27l-.52,7.53h-6.8l3.49-32.58h11.36l3.27,32.58h-6.97ZM220.66,203.05h-.47l-1.08,11.67h2.67l-1.12-11.67Z"/>
        <path class="cls-4" d="M246.57,228.84c-.34-1.08-.47-1.72-1.33-9.25-.3-3.01-.69-3.44-1.55-3.44h-1.03v12.7h-6.76v-32.58h9.86c5.85,0,7.36,2.5,7.36,8.78,0,6.71-.95,7.19-2.8,8.26v.26c.34.3.73.56,1.03,1.33.47,1.03.95,2.97,1.42,6.76.65,5.29.69,6.03.99,6.97v.21h-7.19ZM244.55,210.07c1.25,0,1.72-.86,1.72-3.87,0-2.58-.56-3.23-1.89-3.23h-1.72v7.1h1.89Z"/>
        <path class="cls-4" d="M260.09,228.84v-32.58h14.42v6.89h-7.66v5.73h7.53v6.59h-7.53v6.16h7.62v7.23h-14.38Z"/>
      </g>
    </g>
  </g>
</svg>