<svg width="13" height="14" viewBox="0 0 13 14" fill="none" xmlns="http://www.w3.org/2000/svg">
<path d="M0.00607202 6.71185C0.0133043 10.3853 2.98969 13.345 6.71767 13.3834C9.56554 13.3261 12.0273 11.5875 12.967 8.92104C13.1383 8.43314 12.6092 7.99531 12.1619 8.25567C11.4899 8.65011 10.7233 8.85484 9.9444 8.8554C7.51823 8.8554 5.56662 6.90378 5.56662 4.47761C5.56718 3.13017 6.18471 1.85784 7.24619 1.0278C7.65621 0.706235 7.4448 0.0408584 6.91628 0.0352951C2.76882 -0.165541 -0.15137 3.47566 0.00607202 6.71185ZM4.45395 4.47761C4.45395 7.50518 6.91684 9.96861 9.94496 9.96861C10.3444 9.96861 10.7928 9.93412 11.2885 9.80672C10.2954 11.2899 8.54856 12.2635 6.67595 12.2646C3.49205 12.224 1.23056 9.6949 1.12319 6.90156C1.17771 2.11654 5.48706 1.27091 5.48706 1.27091C5.48706 1.27091 4.43726 2.57941 4.45395 4.47761Z" fill="white"/>
<path d="M0.00607202 6.71185C0.0133043 10.3853 2.98969 13.345 6.71767 13.3834C9.56554 13.3261 12.0273 11.5875 12.967 8.92104C13.1383 8.43314 12.6092 7.99531 12.1619 8.25567C11.4899 8.65011 10.7233 8.85484 9.9444 8.8554C7.51823 8.8554 5.56662 6.90378 5.56662 4.47761C5.56718 3.13017 6.18471 1.85784 7.24619 1.0278C7.65621 0.706235 7.4448 0.0408584 6.91628 0.0352951C2.76882 -0.165541 -0.15137 3.47566 0.00607202 6.71185ZM4.45395 4.47761C4.45395 7.50518 6.91684 9.96861 9.94496 9.96861C10.3444 9.96861 10.7928 9.93412 11.2885 9.80672C10.2954 11.2899 8.54856 12.2635 6.67595 12.2646C3.49205 12.224 1.23056 9.6949 1.12319 6.90156C1.17771 2.11654 5.48706 1.27091 5.48706 1.27091C5.48706 1.27091 4.43726 2.57941 4.45395 4.47761Z" fill="#F9FAFC"/>
<path d="M0.00607202 6.71185C0.0133043 10.3853 2.98969 13.345 6.71767 13.3834C9.56554 13.3261 12.0273 11.5875 12.967 8.92104C13.1383 8.43314 12.6092 7.99531 12.1619 8.25567C11.4899 8.65011 10.7233 8.85484 9.9444 8.8554C7.51823 8.8554 5.56662 6.90378 5.56662 4.47761C5.56718 3.13017 6.18471 1.85784 7.24619 1.0278C7.65621 0.706235 7.4448 0.0408584 6.91628 0.0352951C2.76882 -0.165541 -0.15137 3.47566 0.00607202 6.71185ZM4.45395 4.47761C4.45395 7.50518 6.91684 9.96861 9.94496 9.96861C10.3444 9.96861 10.7928 9.93412 11.2885 9.80672C10.2954 11.2899 8.54856 12.2635 6.67595 12.2646C3.49205 12.224 1.23056 9.6949 1.12319 6.90156C1.17771 2.11654 5.48706 1.27091 5.48706 1.27091C5.48706 1.27091 4.43726 2.57941 4.45395 4.47761Z" fill="#E8EBF5"/>
<path d="M0.00607202 6.71185C0.0133043 10.3853 2.98969 13.345 6.71767 13.3834C9.56554 13.3261 12.0273 11.5875 12.967 8.92104C13.1383 8.43314 12.6092 7.99531 12.1619 8.25567C11.4899 8.65011 10.7233 8.85484 9.9444 8.8554C7.51823 8.8554 5.56662 6.90378 5.56662 4.47761C5.56718 3.13017 6.18471 1.85784 7.24619 1.0278C7.65621 0.706235 7.4448 0.0408584 6.91628 0.0352951C2.76882 -0.165541 -0.15137 3.47566 0.00607202 6.71185ZM4.45395 4.47761C4.45395 7.50518 6.91684 9.96861 9.94496 9.96861C10.3444 9.96861 10.7928 9.93412 11.2885 9.80672C10.2954 11.2899 8.54856 12.2635 6.67595 12.2646C3.49205 12.224 1.23056 9.6949 1.12319 6.90156C1.17771 2.11654 5.48706 1.27091 5.48706 1.27091C5.48706 1.27091 4.43726 2.57941 4.45395 4.47761Z" fill="#FCFCFC"/>
<path d="M0.00607202 6.71185C0.0133043 10.3853 2.98969 13.345 6.71767 13.3834C9.56554 13.3261 12.0273 11.5875 12.967 8.92104C13.1383 8.43314 12.6092 7.99531 12.1619 8.25567C11.4899 8.65011 10.7233 8.85484 9.9444 8.8554C7.51823 8.8554 5.56662 6.90378 5.56662 4.47761C5.56718 3.13017 6.18471 1.85784 7.24619 1.0278C7.65621 0.706235 7.4448 0.0408584 6.91628 0.0352951C2.76882 -0.165541 -0.15137 3.47566 0.00607202 6.71185ZM4.45395 4.47761C4.45395 7.50518 6.91684 9.96861 9.94496 9.96861C10.3444 9.96861 10.7928 9.93412 11.2885 9.80672C10.2954 11.2899 8.54856 12.2635 6.67595 12.2646C3.49205 12.224 1.23056 9.6949 1.12319 6.90156C1.17771 2.11654 5.48706 1.27091 5.48706 1.27091C5.48706 1.27091 4.43726 2.57941 4.45395 4.47761Z" fill="#D8DBE6"/>
</svg>
